<svg class="MuiSvgIcon-root MuiSvgIcon-fontSizeMedium mui-1winstf" focusable="false" aria-hidden="true" viewBox="0 0 959.355712890625 149.189208984375" width="200" height="31" xmlns="http://www.w3.org/2000/svg" fill="none"><path d="M157.244 31.5029L177.534 31.5029L177.534 87.1404L200.078 58.5033L224.876 58.5033L194.209 93.2847L222.621 126.004L197.823 126.004L183.067 105.922L177.534 112.198L177.534 126.004L157.244 126.004L157.244 31.5029ZM91.3028 31.5049L0 31.5049L0 47.2552L35.5068 47.2552L35.5068 126.006L55.7963 126.006L55.7963 47.2552L91.3028 47.2552L91.3028 31.5049ZM71.5771 58.5034L91.8661 58.5034L91.8661 99.0601C91.8661 105.243 96.8779 110.254 103.06 110.254C110.2 110.254 116.637 107.246 121.174 102.429L121.174 58.5053L127.936 58.5053L127.936 58.5034L139.209 58.5034L139.209 58.5053L141.464 58.5053L141.464 125.938L121.174 119.372L121.174 116.99C113.638 122.651 104.271 126.005 94.121 126.005L91.8666 126.005C80.661 126.005 71.5771 116.921 71.5771 105.715L71.5771 58.5034ZM287.777 96.7554C288.43 85.6503 289.937 58.5053 255.107 58.5053C220.277 58.5053 217.025 93.3406 222.467 106.405C227.909 119.47 240.958 126.005 255.107 126.005C269.257 126.005 281.75 119.908 285.587 117.295L287.777 104.225C284.185 106.838 275.805 112.935 259.487 112.935C243.169 112.935 238.407 103.288 238.407 96.7554L287.777 96.7554ZM272.227 85.5054C272.227 82.1303 268.016 69.7554 255.337 69.7554C242.659 69.7554 238.407 82.1303 238.407 85.5054L272.227 85.5054Z" fill-rule="evenodd" fill="#141414"></path><path fill="#1664FF" d="M254.748 7.87305L254.748 7.87305L268.94 36.8963C273.054 45.3094 266.929 55.1231 257.564 55.1231L257.564 55.1231L243.371 26.0999C239.257 17.6868 245.382 7.87305 254.748 7.87305Z"></path><path fill="#141414" d="M202.333 0L202.333 0C214.752 0 226.09 7.06536 231.561 18.2145L249.674 55.1236L249.674 55.1236C237.254 55.1236 225.917 48.0583 220.446 36.9091L202.333 0Z"></path><path d="M625.436 90.058L649.691 124L628.462 124L607.723 93.0004L607.723 124L590.203 124L590.203 35.8444L607.723 35.8444L607.723 87.9928L627.174 59.2L647.356 59.2L625.436 90.058ZM754.549 98.5384C754.549 104.8 758.149 108.4 764.531 108.4L772.494 108.4L772.494 124L760.046 124C745.789 124 737.029 115.24 737.029 100.862L737.029 73.2844L725.312 73.2844L725.312 69.4984L750.905 42.2908L754.254 42.2908L754.254 59.2L772.134 59.2L772.134 73.2844L754.549 73.2844L754.549 98.5384ZM686.846 57.3664C706.745 57.3664 720.392 72.7048 720.392 91.3708L720.391 91.3708C720.391 93.0832 720.271 94.7956 720.053 96.508L671.01 96.508C672.533 105.352 678.347 110.222 686.845 110.222C692.933 110.222 697.93 107.342 700.591 102.705L719.005 102.705C714.293 116.832 701.89 125.832 686.846 125.832C667.712 125.832 653.236 111.018 653.236 91.6C653.236 72.0832 667.614 57.3664 686.846 57.3664ZM507.997 65.2936L509.869 59.1016L522.947 59.1028L522.947 123.903L509.213 123.903L507.707 118.106C502.142 122.978 494.882 125.834 486.708 125.834C467.214 125.834 452.716 111.117 452.716 91.5028C452.716 71.9644 467.214 57.3676 486.708 57.3676C495.025 57.3676 502.396 60.2992 507.997 65.2936ZM945.186 65.6332L948.011 59.2L959.356 59.2012L959.356 116.474C959.356 136.764 946.745 149.189 926.257 149.189C908.705 149.189 896.225 140.2 893.236 125.397L910.657 125.397C912.633 131.234 919.494 134.201 925.963 134.201C934.811 134.201 942.174 128.474 942.174 118.994L942.174 116.584C937.019 120.239 930.664 122.354 923.651 122.354C905.552 122.354 891.436 108.138 891.436 89.92C891.436 71.8 905.552 57.3676 923.651 57.3676C932.094 57.3676 939.592 60.4648 945.186 65.6332ZM398.076 68.0308C402.504 61.7368 409.888 57.6616 418.134 57.6616C431.542 57.6616 440.956 68.1784 440.956 83.3644L440.956 124L423.436 124L423.436 86.2552C423.436 77.6044 420.043 73.0444 413.694 73.0444C405.872 73.0444 401.236 78.8044 401.236 88.9492L401.236 124L384.152 124L384.152 86.2552C384.152 77.6044 380.858 73.0444 374.585 73.0444C366.665 73.0444 361.931 78.8044 361.931 88.9492L361.931 124L344.411 124L344.411 59.2L356.651 59.2L359.935 67.234C364.535 61.4308 371.633 57.6616 379.265 57.6616C387.506 57.6616 394.319 61.5172 398.076 68.0308ZM834.208 67.21C839.111 61.3684 846.857 57.6616 855.676 57.6616C870.446 57.6616 879.654 68.32 879.654 84.7276L879.654 124L862.134 124L862.134 87.5644C862.134 77.7676 858.414 73.0444 850.832 73.0444C841.8 73.0444 836.291 79.5136 836.291 89.9416L836.291 124L818.771 124L818.771 59.2L830.792 59.2L834.208 67.21ZM554.12 67.1392C558.734 61.4092 564.589 58.84 572.912 58.84L578.672 58.84L578.672 75.3676L571.069 75.3676C561.196 75.3676 557.291 79.7416 557.291 90.3352L557.291 124L539.771 124L539.771 59.2L551.006 59.2L554.12 67.1392ZM801.971 124L784.451 124L784.451 59.2L801.971 59.2L801.971 124ZM702.874 84.5416C700.397 76.6192 694.708 72.3232 686.845 72.3232C679.045 72.3232 673.507 76.8724 671.472 84.5416L702.874 84.5416ZM909.197 89.9212C909.197 99.6088 916.08 106.689 925.734 106.689C935.291 106.689 942.251 99.6304 942.251 89.9212C942.251 80.2888 935.389 73.2304 925.735 73.2304C916.178 73.2304 909.197 80.3104 909.197 89.9212ZM470.474 91.5028C470.474 101.66 477.958 109.263 488.136 109.263C498.314 109.263 505.776 101.681 505.776 91.5028C505.776 81.3244 498.314 73.7428 488.136 73.7428C477.958 73.7428 470.474 81.346 470.474 91.5028Z" fill-rule="evenodd" fill="#141414"></path><path fill="#1664FF" d="M806 39L806 32L795 32C788.925 32 784 36.9249 784 43L784 50L795 50C801.075 50 806 45.0751 806 39Z"></path></svg>